<svg xmlns="http://www.w3.org/2000/svg" width="18" height="18" viewBox="0 0 18 18" fill="none">
  <g opacity="0.5">
    <path d="M13.8525 12.6225L14.145 14.9925C14.22 15.615 13.5525 16.05 13.02 15.7275L9.87751 13.86C9.53251 13.86 9.19501 13.8375 8.86501 13.7925C9.42001 13.14 9.75001 12.315 9.75001 11.4225C9.75001 9.2925 7.90501 7.56754 5.62501 7.56754C4.75501 7.56754 3.95251 7.81502 3.28501 8.25002C3.26251 8.06252 3.255 7.87501 3.255 7.68001C3.255 4.26751 6.21751 1.50002 9.87751 1.50002C13.5375 1.50002 16.5 4.26751 16.5 7.68001C16.5 9.70501 15.4575 11.4975 13.8525 12.6225Z" stroke="#292D32" stroke-width="1.125" stroke-linecap="round" stroke-linejoin="round"/>
    <path d="M9.75006 11.4225C9.75006 12.315 9.42007 13.14 8.86507 13.7925C8.12257 14.6925 6.94506 15.27 5.62506 15.27L3.66756 16.4324C3.33756 16.6349 2.91756 16.3575 2.96256 15.975L3.15006 14.4975C2.14506 13.8 1.50006 12.6825 1.50006 11.4225C1.50006 10.1025 2.20506 8.93997 3.28506 8.24997C3.95256 7.81497 4.75506 7.56749 5.62506 7.56749C7.90506 7.56749 9.75006 9.29245 9.75006 11.4225Z" stroke="#292D32" stroke-width="1.125" stroke-linecap="round" stroke-linejoin="round"/>
  </g>
</svg>