<svg width="20" height="20" viewBox="0 0 20 20" fill="none" xmlns="http://www.w3.org/2000/svg">
<g id="vuesax/bold/copy">
<g id="vuesax/bold/copy_2">
<g id="copy">
<path id="Vector" d="M13.3333 10.75V14.25C13.3333 17.1667 12.1667 18.3334 9.25 18.3334H5.75C2.83333 18.3334 1.66666 17.1667 1.66666 14.25V10.75C1.66666 7.83335 2.83333 6.66669 5.75 6.66669H9.25C12.1667 6.66669 13.3333 7.83335 13.3333 10.75Z" fill="#D0D0D0"/>
<path id="Vector_2" d="M14.25 1.66669H10.75C8.18077 1.66669 6.97582 2.57843 6.72479 4.78253C6.67227 5.24364 7.05416 5.62502 7.51826 5.62502H9.25C12.75 5.62502 14.375 7.25002 14.375 10.75V12.4818C14.375 12.9459 14.7564 13.3278 15.2175 13.2752C17.4216 13.0242 18.3333 11.8193 18.3333 9.25002V5.75002C18.3333 2.83335 17.1667 1.66669 14.25 1.66669Z" fill="#D0D0D0"/>
</g>
</g>
</g>
</svg>
