<svg xmlns="http://www.w3.org/2000/svg" width="16" height="16" viewBox="0 0 16 16" fill="none">
  <path d="M6.66675 12.6667C6.66675 13.4 7.26675 14 8.00008 14C8.73341 14 9.33341 13.4 9.33341 12.6667C9.33341 11.9333 8.73341 11.3333 8.00008 11.3333C7.26675 11.3333 6.66675 11.9333 6.66675 12.6667Z" fill="#404040" stroke="#404040" stroke-width="0.342857"/>
  <path d="M6.66675 3.33268C6.66675 4.06602 7.26675 4.66602 8.00008 4.66602C8.73341 4.66602 9.33341 4.06602 9.33341 3.33268C9.33341 2.59935 8.73341 1.99935 8.00008 1.99935C7.26675 1.99935 6.66675 2.59935 6.66675 3.33268Z" fill="#404040" stroke="#404040" stroke-width="0.342857"/>
  <path d="M6.66675 7.9987C6.66675 8.73203 7.26675 9.33203 8.00008 9.33203C8.73341 9.33203 9.33341 8.73203 9.33341 7.9987C9.33341 7.26536 8.73341 6.66536 8.00008 6.66536C7.26675 6.66536 6.66675 7.26536 6.66675 7.9987Z" fill="#404040" stroke="#404040" stroke-width="0.342857"/>
</svg>