<svg width="20" height="20" viewBox="0 0 20 20" fill="none" xmlns="http://www.w3.org/2000/svg">
<g id="Frame" clip-path="url(#clip0_374_16501)">
<path id="Vector" d="M3.75 3.125L16.25 16.875" stroke="#B2B2B2" stroke-width="1.25" stroke-linecap="round" stroke-linejoin="round"/>
<path id="Vector_2" d="M12.1023 12.3125C11.489 12.8701 10.6793 13.1612 9.8514 13.1218C9.02345 13.0824 8.24508 12.7157 7.6875 12.1023C7.12992 11.489 6.83882 10.6793 6.87823 9.8514C6.91765 9.02345 7.28434 8.24508 7.89766 7.6875" stroke="#B2B2B2" stroke-width="1.25" stroke-linecap="round" stroke-linejoin="round"/>
<path id="Vector_3" d="M10.5883 6.93042C11.2527 7.05765 11.8578 7.39702 12.3128 7.89755C12.7679 8.39808 13.0482 9.03274 13.1117 9.7062" stroke="#B2B2B2" stroke-width="1.25" stroke-linecap="round" stroke-linejoin="round"/>
<path id="Vector_4" d="M16.2977 13.2109C18.0008 11.6859 18.75 10 18.75 10C18.75 10 16.25 4.37501 10 4.37501C9.45878 4.37427 8.9184 4.41817 8.38438 4.50626" stroke="#B2B2B2" stroke-width="1.25" stroke-linecap="round" stroke-linejoin="round"/>
<path id="Vector_5" d="M5.78125 5.35938C2.59609 6.97187 1.25 10 1.25 10C1.25 10 3.75 15.625 10 15.625C11.4645 15.6365 12.9106 15.2991 14.2188 14.6406" stroke="#B2B2B2" stroke-width="1.25" stroke-linecap="round" stroke-linejoin="round"/>
</g>
<defs>
<clipPath id="clip0_374_16501">
<rect width="20" height="20" fill="white"/>
</clipPath>
</defs>
</svg>
