<svg width="33" height="33" viewBox="0 0 33 33" fill="none" xmlns="http://www.w3.org/2000/svg">
<path d="M16.2698 14.0577H16.4C17.246 14.0577 18.027 14.45 18.6127 15.3C18.9381 15.7577 19.0682 16.3461 19.0682 16.8692C19.0682 17.9154 18.5476 18.7654 17.5714 19.3538C17.1159 19.55 16.6603 19.6808 16.3349 19.6808C15.2286 19.6808 14.3825 19.1577 13.7317 18.0461C13.6016 17.6538 13.4714 17.2615 13.4714 16.8692C13.4714 15.8231 13.9921 14.9731 14.9682 14.3846C15.4889 14.1884 15.8794 14.0577 16.2698 14.0577Z" fill="#F47B20"/>
<path d="M16.3349 32.8231C7.5492 32.8231 0.455551 25.6961 0.455551 16.8692C0.455551 8.04228 7.61428 0.980743 16.3349 0.980743C25.1206 0.980743 32.2143 8.10767 32.2143 16.9346C32.2143 25.7615 25.1206 32.8231 16.3349 32.8231ZM16.3349 6.2769C10.4778 6.2769 5.72698 11.05 5.72698 16.8692C5.72698 22.7538 10.4778 27.4615 16.3349 27.4615C22.1921 27.4615 26.9429 22.6884 26.9429 16.8692C26.9429 11.05 22.1921 6.2769 16.3349 6.2769Z" fill="#F47B20"/>
</svg>
