<svg width="18" height="18" viewBox="0 0 18 18" fill="none" xmlns="http://www.w3.org/2000/svg">
<g id="vuesax/outline/login">
<g id="login">
<path id="Vector" d="M8.76009 11.5276C8.61759 11.5276 8.47509 11.4751 8.36259 11.3626C8.14509 11.1451 8.14509 10.7851 8.36259 10.5676L9.88509 9.04508L8.36259 7.52258C8.14509 7.30508 8.14509 6.94508 8.36259 6.72758C8.58009 6.51008 8.94009 6.51008 9.15759 6.72758L11.0776 8.64758C11.2951 8.86508 11.2951 9.22508 11.0776 9.44258L9.15759 11.3626C9.05259 11.4751 8.90259 11.5276 8.76009 11.5276Z" fill="#F47B20"/>
<path id="Vector_2" d="M10.6275 9.60742H3C2.6925 9.60742 2.4375 9.35242 2.4375 9.04492C2.4375 8.73742 2.6925 8.48242 3 8.48242H10.6275C10.935 8.48242 11.19 8.73742 11.19 9.04492C11.19 9.35242 10.935 9.60742 10.6275 9.60742Z" fill="#F47B20"/>
<path id="Vector_3" d="M9 15.5625C8.6925 15.5625 8.4375 15.3075 8.4375 15C8.4375 14.6925 8.6925 14.4375 9 14.4375C12.2025 14.4375 14.4375 12.2025 14.4375 9C14.4375 5.7975 12.2025 3.5625 9 3.5625C8.6925 3.5625 8.4375 3.3075 8.4375 3C8.4375 2.6925 8.6925 2.4375 9 2.4375C12.8625 2.4375 15.5625 5.1375 15.5625 9C15.5625 12.8625 12.8625 15.5625 9 15.5625Z" fill="#F47B20"/>
</g>
</g>
</svg>
