<svg width="164" height="33" viewBox="0 0 164 33" fill="none" xmlns="http://www.w3.org/2000/svg">
<path d="M16.2698 14.0577H16.4C17.246 14.0577 18.027 14.45 18.6127 15.3C18.9381 15.7577 19.0682 16.3461 19.0682 16.8692C19.0682 17.9154 18.5476 18.7654 17.5714 19.3538C17.1159 19.55 16.6603 19.6808 16.3349 19.6808C15.2286 19.6808 14.3825 19.1577 13.7317 18.0461C13.6016 17.6538 13.4714 17.2615 13.4714 16.8692C13.4714 15.8231 13.9921 14.9731 14.9682 14.3846C15.4889 14.1884 15.8794 14.0577 16.2698 14.0577Z" fill="#F47B20"/>
<path d="M16.3349 32.8231C7.5492 32.8231 0.455551 25.6961 0.455551 16.8692C0.455551 8.04228 7.61428 0.980743 16.3349 0.980743C25.1206 0.980743 32.2143 8.10767 32.2143 16.9346C32.2143 25.7615 25.1206 32.8231 16.3349 32.8231ZM16.3349 6.2769C10.4778 6.2769 5.72698 11.05 5.72698 16.8692C5.72698 22.7538 10.4778 27.4615 16.3349 27.4615C22.1921 27.4615 26.9429 22.6884 26.9429 16.8692C26.9429 11.05 22.1921 6.2769 16.3349 6.2769Z" fill="#F47B20"/>
<path d="M34.8175 11.573C34.8175 10.723 34.9476 10.0692 35.2079 9.48073C35.4683 8.89226 35.8587 8.43457 36.3794 8.04226C36.8349 7.64996 37.4206 7.38842 38.0714 7.19226C38.7222 6.99611 39.4381 6.93073 40.154 6.93073C41.3254 6.93073 42.2365 7.06149 42.7571 7.38842C43.3429 7.71534 43.6032 8.23842 43.6032 9.02303C43.6032 9.34996 43.5381 9.61149 43.4079 9.87303C43.2778 10.1346 43.1476 10.3307 42.9524 10.4615C42.627 10.3961 42.3016 10.3307 41.9762 10.2653C41.6508 10.2 41.2603 10.2 40.8048 10.2C40.0889 10.2 39.5683 10.3307 39.1778 10.5269C38.7873 10.7884 38.5921 11.1807 38.5921 11.7692V12.5538H42.5619C42.627 12.75 42.7571 12.9461 42.8222 13.2076C42.8873 13.4692 42.9524 13.7961 42.9524 14.0576C42.9524 14.6461 42.8222 15.0384 42.5619 15.3C42.3016 15.5615 41.9762 15.6923 41.5857 15.6923H38.8524V23.3423C38.7222 23.4076 38.4619 23.4076 38.0714 23.473C37.746 23.5384 37.3556 23.5384 37.0302 23.5384C36.7048 23.5384 36.3794 23.5384 36.054 23.473C35.7937 23.4076 35.5333 23.3423 35.3381 23.2115C35.1429 23.0807 35.0127 22.8846 34.8825 22.623C34.7524 22.3615 34.7524 22.0346 34.7524 21.6423V11.573H34.8175Z" fill="#F47B20"/>
<path d="M44.319 11.5731C44.319 10.7231 44.4492 10.0692 44.7095 9.48075C44.9698 8.89229 45.3603 8.4346 45.881 8.04229C46.4016 7.64998 46.9222 7.38844 47.573 7.19229C48.2238 6.99613 48.9397 6.93075 49.6556 6.93075C50.827 6.93075 51.7381 7.06152 52.2587 7.38844C52.8444 7.71536 53.1048 8.23844 53.1048 9.02306C53.1048 9.34998 53.0397 9.61152 52.9095 9.87306C52.7794 10.1346 52.6492 10.3307 52.454 10.4615C52.1286 10.3961 51.8032 10.3307 51.4778 10.2654C51.1524 10.2 50.7619 10.2 50.3064 10.2C49.5905 10.2 49.0698 10.3307 48.6794 10.5269C48.2889 10.7884 48.0937 11.1807 48.0937 11.7692V12.5538H52.0635C52.1286 12.75 52.2587 12.9461 52.3238 13.2077C52.3889 13.4692 52.454 13.7961 52.454 14.0577C52.454 14.6461 52.3238 15.0384 52.0635 15.3C51.8032 15.5615 51.4778 15.6923 51.0873 15.6923H48.354V23.3423C48.2238 23.4077 47.9635 23.4077 47.573 23.4731C47.2476 23.5384 46.8571 23.5384 46.5317 23.5384C46.2063 23.5384 45.881 23.5384 45.5556 23.4731C45.2952 23.4077 45.0349 23.3423 44.8397 23.2115C44.6444 23.0807 44.5143 22.8846 44.3841 22.6231C44.254 22.3615 44.254 22.0346 44.254 21.6423V11.5731H44.319ZM54.4714 8.30383C54.4714 7.71536 54.6667 7.19229 55.0571 6.7346C55.4476 6.34229 56.0333 6.08075 56.6841 6.08075C57.3349 6.08075 57.9206 6.2769 58.3111 6.7346C58.7016 7.1269 58.8968 7.64998 58.8968 8.30383C58.8968 8.89229 58.7016 9.41536 58.3111 9.87306C57.9206 10.2654 57.3349 10.5269 56.6841 10.5269C56.0333 10.5269 55.4476 10.3307 55.0571 9.87306C54.6667 9.41536 54.4714 8.89229 54.4714 8.30383ZM58.7016 23.2769C58.5063 23.2769 58.246 23.3423 57.9206 23.4077C57.5952 23.4731 57.2048 23.4731 56.8794 23.4731C56.554 23.4731 56.2286 23.4731 55.9032 23.4077C55.6429 23.3423 55.3825 23.2769 55.1873 23.1461C54.9921 23.0154 54.8619 22.8192 54.7317 22.5577C54.6667 22.2961 54.6667 21.9692 54.6667 21.5769V11.7692C54.8619 11.7692 55.1222 11.7038 55.4476 11.6384C55.773 11.5731 56.1635 11.5731 56.4889 11.5731C56.8143 11.5731 57.1397 11.5731 57.4651 11.6384C57.7254 11.7038 57.9857 11.7692 58.181 11.9C58.3762 12.0307 58.5063 12.2269 58.6365 12.4884C58.7667 12.75 58.7667 13.0769 58.7667 13.4692V23.2769H58.7016Z" fill="#F47B20"/>
<path d="M67.4222 14.45C67.0317 14.45 66.6413 14.5154 66.2508 14.6461C65.8603 14.7769 65.6 14.9731 65.3397 15.2346C65.0794 15.4961 64.8841 15.8231 64.6889 16.15C64.5587 16.5423 64.4286 16.9346 64.4286 17.4577C64.4286 18.4384 64.6889 19.2231 65.2746 19.6808C65.8603 20.2038 66.5111 20.4 67.3571 20.4C67.8127 20.4 68.2683 20.3346 68.5936 20.2038C68.919 20.0731 69.2444 19.9423 69.5048 19.8115C69.8302 20.0077 70.0905 20.2692 70.2206 20.5308C70.3508 20.7923 70.481 21.1192 70.481 21.5115C70.481 22.1654 70.1556 22.6884 69.5698 23.0154C68.919 23.4077 68.073 23.5384 66.9667 23.5384C65.9254 23.5384 65.0143 23.4077 64.2333 23.0808C63.3873 22.7538 62.7365 22.3615 62.1508 21.8385C61.5651 21.3154 61.1095 20.6615 60.7841 19.8769C60.4587 19.0923 60.3286 18.3077 60.3286 17.3923C60.3286 16.3461 60.5238 15.4308 60.8492 14.5808C61.1746 13.7961 61.6302 13.1423 62.2809 12.6192C62.8667 12.0961 63.5825 11.7038 64.3635 11.4423C65.1444 11.1808 65.9905 11.05 66.8365 11.05C68.0079 11.05 68.854 11.2461 69.5048 11.7038C70.1556 12.0961 70.4159 12.6846 70.4159 13.3384C70.4159 13.6654 70.3508 13.9269 70.2206 14.1885C70.0905 14.45 69.8952 14.7115 69.7 14.9077C69.4397 14.7769 69.1143 14.6461 68.7238 14.5154C68.3333 14.45 67.8778 14.45 67.4222 14.45Z" fill="#F47B20"/>
<path d="M77.9651 23.6692C76.9889 23.6692 76.1429 23.5384 75.3619 23.2769C74.581 23.0153 73.8651 22.623 73.2143 22.1C72.6286 21.5769 72.1079 20.923 71.7825 20.073C71.4571 19.2884 71.2619 18.3076 71.2619 17.2615C71.2619 16.2153 71.4571 15.3 71.7825 14.5153C72.1079 13.7307 72.5635 13.1423 73.1492 12.6192C73.7349 12.0961 74.3206 11.7692 75.1016 11.5076C75.8175 11.2461 76.5333 11.1807 77.3143 11.1807C78.1603 11.1807 78.9413 11.3115 79.6571 11.573C80.373 11.8346 80.9587 12.1615 81.4794 12.6192C82 13.0769 82.3905 13.6 82.6508 14.2538C82.9111 14.9076 83.0413 15.5615 83.0413 16.2807C83.0413 16.8038 82.9111 17.2615 82.5857 17.523C82.2603 17.7846 81.8698 17.9807 81.2841 18.0461L75.3619 18.9615C75.5571 19.4846 75.8825 19.8769 76.4683 20.1384C76.9889 20.4 77.6397 20.5307 78.3556 20.5307C79.0063 20.5307 79.6571 20.4653 80.2429 20.2692C80.8286 20.073 81.2841 19.8769 81.6746 19.6807C81.9349 19.8115 82.1302 20.073 82.3254 20.3346C82.5206 20.5961 82.5857 20.923 82.5857 21.25C82.5857 21.9692 82.2603 22.4923 81.5444 22.8846C81.0238 23.1461 80.4381 23.3423 79.7873 23.4076C79.0714 23.6038 78.4857 23.6692 77.9651 23.6692ZM77.2492 14.1884C76.8587 14.1884 76.5333 14.2538 76.273 14.3846C76.0127 14.5153 75.7524 14.6461 75.5571 14.9076C75.3619 15.1038 75.2317 15.3653 75.1667 15.5615C75.1016 15.823 75.0365 16.0846 75.0365 16.3461L79.1365 15.6923C79.0714 15.3653 78.9413 15.0384 78.6159 14.7115C78.2905 14.3192 77.8349 14.1884 77.2492 14.1884Z" fill="#F47B20"/>
<path d="M94.6905 19.6808C94.4952 19.8769 94.2349 20.0077 93.9095 20.0731C93.5841 20.2038 93.1936 20.2038 92.7381 20.2038C92.1524 20.2038 91.6968 20.1385 91.3063 20.0077C90.9159 19.8769 90.6556 19.6154 90.5905 19.2885C90.1349 17.85 89.7444 16.7385 89.4841 15.8231C89.2238 14.9731 88.9635 14.1885 88.8333 13.5346H88.7032C88.6381 14.5154 88.6381 15.3654 88.573 16.15C88.573 16.9346 88.5079 17.7192 88.5079 18.4385C88.5079 19.1577 88.5079 19.9423 88.4429 20.6615C88.4429 21.4462 88.3778 22.2308 88.3127 23.1462C88.1175 23.2115 87.8571 23.2769 87.4667 23.3423C87.1413 23.4077 86.8159 23.4077 86.4254 23.4077C85.7095 23.4077 85.1889 23.2769 84.7984 23.0808C84.4079 22.8846 84.2127 22.4269 84.2127 21.8385L84.9286 9.54615C85.0587 9.35 85.319 9.08846 85.7746 8.89231C86.2302 8.63077 86.8159 8.5 87.5968 8.5C88.4429 8.5 89.0936 8.63077 89.6143 8.89231C90.0698 9.15385 90.4603 9.61154 90.6556 10.2C90.7857 10.5923 90.981 11.05 91.1111 11.5077C91.3063 12.0308 91.4365 12.5538 91.6317 13.0769C91.827 13.6 91.9571 14.1231 92.1524 14.6462C92.2825 15.1692 92.4778 15.6269 92.6079 16.0846H92.7381C93.1286 14.7115 93.519 13.4038 93.9095 12.1615C94.3 10.9192 94.6254 9.80769 94.9508 8.95769C95.2111 8.82692 95.4714 8.69615 95.8619 8.63077C96.2524 8.56538 96.6429 8.5 97.0984 8.5C97.8794 8.5 98.5302 8.63077 99.0508 8.82692C99.5714 9.08846 99.8317 9.41538 99.8968 9.80769C99.9619 10.1346 100.027 10.6577 100.092 11.3115C100.157 11.9654 100.222 12.75 100.352 13.6C100.417 14.45 100.483 15.3 100.613 16.2808C100.678 17.1962 100.743 18.1115 100.873 18.9615C100.938 19.8115 101.003 20.5962 101.068 21.3154C101.133 22.0346 101.133 22.5577 101.133 22.95C100.873 23.0808 100.548 23.2115 100.287 23.2769C99.9619 23.3423 99.6365 23.4077 99.1159 23.4077C98.5302 23.4077 98.0095 23.2769 97.554 23.0808C97.1635 22.8846 96.9032 22.4923 96.9032 21.8385C96.8381 20.0731 96.773 18.5038 96.7079 17.1308C96.7079 15.7577 96.6429 14.5808 96.5778 13.6H96.4476C96.3175 14.2538 96.0571 15.0385 95.7317 15.9538C95.4714 17 95.146 18.1769 94.6905 19.6808Z" fill="#2B292A"/>
<path d="M107.771 11.1807C108.617 11.1807 109.398 11.2461 110.114 11.4423C110.83 11.6384 111.416 11.9 111.937 12.2269C112.457 12.6192 112.848 13.0769 113.108 13.6C113.368 14.123 113.498 14.8423 113.498 15.5615V20.9884C113.498 21.3807 113.368 21.773 113.173 22.0346C112.913 22.2961 112.652 22.5576 112.327 22.7538C111.286 23.4076 109.789 23.6692 107.902 23.6692C107.056 23.6692 106.275 23.6038 105.624 23.4076C104.973 23.2769 104.387 23.0153 103.867 22.6884C103.346 22.3615 103.021 21.9692 102.76 21.4461C102.5 20.923 102.37 20.4 102.37 19.6807C102.37 18.5692 102.695 17.7192 103.346 17.1307C103.997 16.5423 105.038 16.15 106.405 16.0192L109.529 15.6923V15.4961C109.529 15.0384 109.333 14.7115 108.943 14.5153C108.552 14.3192 107.967 14.1884 107.186 14.1884C106.6 14.1884 106.014 14.2538 105.429 14.3846C104.843 14.5153 104.322 14.6461 103.867 14.8423C103.671 14.7115 103.476 14.45 103.346 14.1884C103.216 13.8615 103.151 13.6 103.151 13.273C103.151 12.8807 103.281 12.4884 103.476 12.2923C103.671 12.0307 103.997 11.8346 104.387 11.6384C104.843 11.4423 105.429 11.3115 106.014 11.2461C106.665 11.2461 107.251 11.1807 107.771 11.1807ZM107.967 20.6615C108.227 20.6615 108.552 20.6615 108.878 20.5961C109.203 20.5307 109.463 20.4653 109.594 20.3346V18.373L107.837 18.5038C107.381 18.5038 106.99 18.6346 106.73 18.7653C106.47 18.8961 106.275 19.1576 106.275 19.4846C106.275 19.8115 106.405 20.073 106.665 20.2692C106.99 20.5961 107.381 20.6615 107.967 20.6615Z" fill="#2B292A"/>
<path d="M119.681 23.2769C119.551 23.3423 119.29 23.3423 118.9 23.4077C118.575 23.473 118.184 23.473 117.859 23.473C117.533 23.473 117.208 23.473 116.883 23.4077C116.622 23.3423 116.362 23.2769 116.167 23.1461C115.971 23.0154 115.841 22.8192 115.711 22.5577C115.581 22.2961 115.581 21.9692 115.581 21.5769V14.3192C115.581 13.9269 115.646 13.6 115.776 13.3384C115.906 13.0769 116.102 12.8154 116.362 12.6192C116.622 12.423 116.948 12.2269 117.338 12.0307C117.729 11.8346 118.119 11.7038 118.575 11.573C119.03 11.4423 119.486 11.3115 119.941 11.2461C120.397 11.1807 120.852 11.1154 121.308 11.1154C122.089 11.1154 122.675 11.2461 123.13 11.573C123.586 11.9 123.781 12.3577 123.781 13.0115C123.781 13.2077 123.781 13.4692 123.716 13.6654C123.651 13.8615 123.586 14.0577 123.456 14.2538C123.13 14.2538 122.805 14.2538 122.414 14.3192C122.089 14.3192 121.698 14.3846 121.373 14.45C121.048 14.5154 120.722 14.5807 120.397 14.6461C120.071 14.7115 119.876 14.7769 119.616 14.9077V23.2769H119.681Z" fill="#2B292A"/>
<path d="M129.052 19.223C129.052 19.6153 129.183 19.9423 129.443 20.1384C129.703 20.3346 130.094 20.4 130.549 20.4C130.81 20.4 131.07 20.4 131.265 20.3346C131.525 20.2692 131.721 20.2692 131.916 20.2038C132.046 20.4 132.176 20.5961 132.306 20.7923C132.437 20.9884 132.437 21.25 132.437 21.5769C132.437 22.1653 132.176 22.6884 131.721 23.0807C131.265 23.473 130.484 23.6692 129.313 23.6692C127.881 23.6692 126.84 23.3423 126.059 22.6884C125.278 22.0346 124.887 20.9884 124.887 19.55V9.21919C125.083 9.15381 125.343 9.08843 125.668 9.08843C125.994 9.02304 126.319 9.02304 126.71 9.02304C127.425 9.02304 127.946 9.15381 128.337 9.41535C128.727 9.67689 128.922 10.2 128.922 10.9846V12.5538H132.046C132.111 12.75 132.241 12.9461 132.306 13.2077C132.371 13.4692 132.437 13.7961 132.437 14.0577C132.437 14.6461 132.306 15.0384 132.046 15.3C131.786 15.5615 131.46 15.6923 131.07 15.6923H128.857V19.223H129.052Z" fill="#2B292A"/>
<path d="M133.413 21.3154C133.413 20.6615 133.608 20.0731 134.063 19.6154C134.454 19.1577 135.04 18.9615 135.756 18.9615C136.471 18.9615 137.057 19.1577 137.448 19.6154C137.838 20.0731 138.098 20.6615 138.098 21.3154C138.098 21.9692 137.903 22.5577 137.448 23.0154C137.057 23.4731 136.471 23.6692 135.756 23.6692C135.04 23.6692 134.454 23.4731 134.063 23.0154C133.608 22.5577 133.413 22.0346 133.413 21.3154Z" fill="#2B292A"/>
<path d="M145.062 11.1807C145.973 11.1807 146.819 11.3115 147.535 11.5076C148.251 11.7692 148.902 12.0307 149.422 12.423C149.748 12.6192 150.008 12.8807 150.203 13.1423C150.398 13.4038 150.463 13.7961 150.463 14.1884V22.623C150.463 23.473 150.333 24.1923 150.008 24.8461C149.683 25.4346 149.227 25.9576 148.706 26.4153C148.186 26.8076 147.535 27.1346 146.754 27.3307C146.038 27.5269 145.192 27.5923 144.346 27.5923C142.914 27.5923 141.743 27.3961 140.897 27.0038C140.051 26.6115 139.66 25.9576 139.66 25.1076C139.66 24.7153 139.725 24.3884 139.921 24.1269C140.051 23.8653 140.246 23.6038 140.441 23.473C140.897 23.7346 141.417 23.9307 142.003 24.1269C142.589 24.323 143.175 24.3884 143.825 24.3884C144.671 24.3884 145.387 24.2576 145.908 23.9307C146.429 23.6692 146.689 23.1461 146.689 22.5576V22.2307C146.038 22.4923 145.257 22.6884 144.281 22.6884C143.565 22.6884 142.849 22.5576 142.198 22.3615C141.548 22.1653 140.962 21.8384 140.506 21.3153C139.986 20.8576 139.595 20.2692 139.335 19.55C139.01 18.8307 138.879 17.9807 138.879 16.9346C138.879 15.9538 139.01 15.1038 139.335 14.3846C139.66 13.6653 140.051 13.0769 140.637 12.5538C141.157 12.0961 141.873 11.7038 142.589 11.5076C143.37 11.3115 144.151 11.1807 145.062 11.1807ZM146.559 14.7115C146.429 14.6461 146.298 14.5807 146.038 14.5153C145.843 14.45 145.583 14.45 145.257 14.45C144.476 14.45 143.89 14.6461 143.5 15.1038C143.11 15.5615 142.914 16.15 142.914 17C142.914 17.9153 143.11 18.6346 143.5 19.0269C143.89 19.4192 144.411 19.6153 144.997 19.6153C145.648 19.6153 146.168 19.4846 146.559 19.1576V14.7115Z" fill="#2B292A"/>
<path d="M158.729 23.6692C157.752 23.6692 156.906 23.5384 156.125 23.2769C155.344 23.0153 154.629 22.623 153.978 22.1C153.392 21.5769 152.871 20.923 152.546 20.073C152.221 19.2884 152.025 18.3076 152.025 17.2615C152.025 16.2153 152.221 15.3 152.546 14.5153C152.871 13.7307 153.327 13.1423 153.913 12.6192C154.498 12.0961 155.084 11.7692 155.865 11.5076C156.581 11.2461 157.297 11.1807 158.078 11.1807C158.924 11.1807 159.705 11.3115 160.421 11.573C161.136 11.8346 161.722 12.1615 162.243 12.6192C162.763 13.0769 163.154 13.6 163.414 14.2538C163.675 14.9076 163.805 15.5615 163.805 16.2807C163.805 16.8038 163.675 17.2615 163.349 17.523C163.024 17.7846 162.633 17.9807 162.048 18.0461L156.125 18.9615C156.321 19.4846 156.646 19.8769 157.232 20.1384C157.752 20.4 158.403 20.5307 159.119 20.5307C159.77 20.5307 160.421 20.4653 161.006 20.2692C161.592 20.073 162.048 19.8769 162.438 19.6807C162.698 19.8115 162.894 20.073 163.089 20.3346C163.284 20.5961 163.349 20.923 163.349 21.25C163.349 21.9692 163.024 22.4923 162.308 22.8846C161.787 23.1461 161.202 23.3423 160.551 23.4076C159.835 23.6038 159.249 23.6692 158.729 23.6692ZM158.013 14.1884C157.622 14.1884 157.297 14.2538 157.036 14.3846C156.776 14.5153 156.516 14.6461 156.321 14.9076C156.125 15.1038 155.995 15.3653 155.93 15.5615C155.865 15.823 155.8 16.0846 155.8 16.3461L159.9 15.6923C159.835 15.3653 159.705 15.0384 159.379 14.7115C159.054 14.3192 158.598 14.1884 158.013 14.1884Z" fill="#2B292A"/>
</svg>
