<svg xmlns="http://www.w3.org/2000/svg" width="18" height="18" viewBox="0 0 18 18" fill="none">
  <path d="M5.43762 5.25002H12.5626V3.75002C12.5626 2.25002 12.0001 1.50002 10.3126 1.50002H7.68762C6.00012 1.50002 5.43762 2.25002 5.43762 3.75002V5.25002Z" stroke="#292D32" stroke-width="1.125" stroke-miterlimit="10" stroke-linecap="round" stroke-linejoin="round"/>
  <path d="M12.0001 11.25V14.25C12.0001 15.75 11.2501 16.5 9.75012 16.5H8.25012C6.75012 16.5 6.00012 15.75 6.00012 14.25V11.25H12.0001Z" stroke="#292D32" stroke-width="1.125" stroke-miterlimit="10" stroke-linecap="round" stroke-linejoin="round"/>
  <path d="M15.75 7.49998V11.25C15.75 12.75 15 13.5 13.5 13.5H12V11.25H6V13.5H4.5C3 13.5 2.25 12.75 2.25 11.25V7.49998C2.25 5.99998 3 5.24998 4.5 5.24998H13.5C15 5.24998 15.75 5.99998 15.75 7.49998Z" stroke="#292D32" stroke-width="1.125" stroke-miterlimit="10" stroke-linecap="round" stroke-linejoin="round"/>
  <path d="M12.7499 11.25H11.8424H5.24988" stroke="#292D32" stroke-width="1.125" stroke-miterlimit="10" stroke-linecap="round" stroke-linejoin="round"/>
  <path d="M5.24988 8.25002H7.49988" stroke="#292D32" stroke-width="1.125" stroke-miterlimit="10" stroke-linecap="round" stroke-linejoin="round"/>
</svg>