<svg width="18" height="18" viewBox="0 0 18 18" fill="none" xmlns="http://www.w3.org/2000/svg">
<g id="vuesax/outline/security-safe">
<g id="security-safe">
<path id="Vector" d="M8.99989 17.0626C8.81989 17.0626 8.63989 17.0401 8.46739 16.9876C4.57489 15.9151 1.75488 12.2776 1.75488 8.33259V5.04008C1.75488 4.20008 2.36239 3.29262 3.14239 2.97012L7.31989 1.2601C8.40739 0.817598 9.59988 0.817598 10.6799 1.2601L14.8574 2.97012C15.6374 3.29262 16.2449 4.20008 16.2449 5.04008V8.33259C16.2449 12.2701 13.4174 15.9076 9.53238 16.9876C9.35988 17.0401 9.17989 17.0626 8.99989 17.0626ZM8.99989 2.0626C8.57239 2.0626 8.15238 2.14512 7.74738 2.31012L3.56989 4.02009C3.20989 4.17009 2.87988 4.65759 2.87988 5.04759V8.3401C2.87988 11.7826 5.35489 14.9626 8.76739 15.9076C8.91739 15.9526 9.08238 15.9526 9.23238 15.9076C12.6449 14.9626 15.1199 11.7826 15.1199 8.3401V5.04759C15.1199 4.65759 14.7899 4.17009 14.4299 4.02009L10.2524 2.31012C9.8474 2.14512 9.42739 2.0626 8.99989 2.0626Z" fill="#292D32"/>
<path id="Vector_2" d="M9 9.9375C7.86 9.9375 6.9375 9.015 6.9375 7.875C6.9375 6.735 7.86 5.8125 9 5.8125C10.14 5.8125 11.0625 6.735 11.0625 7.875C11.0625 9.015 10.14 9.9375 9 9.9375ZM9 6.9375C8.4825 6.9375 8.0625 7.3575 8.0625 7.875C8.0625 8.3925 8.4825 8.8125 9 8.8125C9.5175 8.8125 9.9375 8.3925 9.9375 7.875C9.9375 7.3575 9.5175 6.9375 9 6.9375Z" fill="#292D32"/>
<path id="Vector_3" d="M9 12.1875C8.6925 12.1875 8.4375 11.9325 8.4375 11.625V9.375C8.4375 9.0675 8.6925 8.8125 9 8.8125C9.3075 8.8125 9.5625 9.0675 9.5625 9.375V11.625C9.5625 11.9325 9.3075 12.1875 9 12.1875Z" fill="#292D32"/>
</g>
</g>
</svg>
