<svg width="22" height="22" viewBox="0 0 22 22" fill="none" xmlns="http://www.w3.org/2000/svg">
<path d="M18.0814 6.92825L8.0947 1.93491C1.38636 -1.42509 -1.36697 1.32825 1.99303 8.03658L3.00803 10.0666C3.2997 10.6616 3.2997 11.3499 3.00803 11.9449L1.99303 13.9632C-1.36697 20.6716 1.3747 23.4249 8.0947 20.0649L18.0814 15.0716C22.5614 12.8316 22.5614 9.16825 18.0814 6.92825ZM14.313 11.8749H8.01303C7.5347 11.8749 7.13803 11.4782 7.13803 10.9999C7.13803 10.5216 7.5347 10.1249 8.01303 10.1249H14.313C14.7914 10.1249 15.188 10.5216 15.188 10.9999C15.188 11.4782 14.7914 11.8749 14.313 11.8749Z" fill="#F47B20"/>
</svg>
