<svg width="20" height="20" viewBox="0 0 20 20" fill="none" xmlns="http://www.w3.org/2000/svg">
<path d="M14.1667 2.91663H5.83335C3.33335 2.91663 1.66669 4.16663 1.66669 7.08329V12.9166C1.66669 15.8333 3.33335 17.0833 5.83335 17.0833H14.1667C16.6667 17.0833 18.3334 15.8333 18.3334 12.9166V7.08329C18.3334 4.16663 16.6667 2.91663 14.1667 2.91663ZM14.5584 7.99163L11.95 10.075C11.4 10.5166 10.7 10.7333 10 10.7333C9.30002 10.7333 8.59169 10.5166 8.05002 10.075L5.44169 7.99163C5.17502 7.77496 5.13335 7.37496 5.34169 7.10829C5.55835 6.84163 5.95002 6.79163 6.21669 7.00829L8.82502 9.09163C9.45835 9.59996 10.5334 9.59996 11.1667 9.09163L13.775 7.00829C14.0417 6.79163 14.4417 6.83329 14.65 7.10829C14.8667 7.37496 14.825 7.77496 14.5584 7.99163Z" fill="#219653"/>
</svg>
