<svg width="18" height="18" viewBox="0 0 18 18" fill="none" xmlns="http://www.w3.org/2000/svg">
<path d="M12.125 6.96875C13.3992 7.88589 14.9301 8.37796 16.5 8.375V5.25C15.3397 5.25 14.2269 4.78906 13.4064 3.96859C12.5859 3.14812 12.125 2.03532 12.125 0.875H9V11.1875C8.99984 11.5789 8.89464 11.9631 8.69539 12.3001C8.49614 12.637 8.21014 12.9143 7.86721 13.103C7.52428 13.2917 7.137 13.385 6.74575 13.3731C6.3545 13.3611 5.97362 13.2444 5.64284 13.0351C5.31207 12.8258 5.04351 12.5316 4.86519 12.1831C4.68686 11.8347 4.6053 11.4448 4.62902 11.0541C4.65273 10.6633 4.78085 10.2861 5.00001 9.96182C5.21917 9.63749 5.52134 9.37791 5.875 9.21016V5.875C3.38828 6.31797 1.5 8.57344 1.5 11.1875C1.5 12.5965 2.05971 13.9477 3.056 14.944C4.05228 15.9403 5.40354 16.5 6.8125 16.5C8.22146 16.5 9.57272 15.9403 10.569 14.944C11.5653 13.9477 12.125 12.5965 12.125 11.1875V6.96875Z" stroke="black" stroke-width="1.25" stroke-linecap="round" stroke-linejoin="round"/>
</svg>
